<?xml version="1.0" encoding="utf-8"?>
<!-- Generator: Adobe Illustrator 16.2.1, SVG Export Plug-In . SVG Version: 6.00 Build 0)  -->
<!DOCTYPE svg PUBLIC "-//W3C//DTD SVG 1.1//EN" "http://www.w3.org/Graphics/SVG/1.1/DTD/svg11.dtd">
<svg version="1.1" id="Layer_1" xmlns="http://www.w3.org/2000/svg" xmlns:xlink="http://www.w3.org/1999/xlink" x="0px" y="0px"
	 width="910px" height="80px" viewBox="0 0 910 80" enable-background="new 0 0 910 80" xml:space="preserve">
<path fill="#165489" d="M903.273,1.184H611.488L639.115,39.7l0.1,0.07l-0.024,0.033l0.024,0.034l-0.1,0.071l-27.628,38.517h291.786
	c3.116,0,5.642-2.525,5.642-5.641V6.824C908.915,3.709,906.39,1.184,903.273,1.184z"/>
<path fill="#165489" d="M313.627,39.804l-27.702-38.62H7.975c-3.115,0-5.641,2.525-5.641,5.641v65.961
	c0,3.115,2.526,5.641,5.641,5.641h277.95L313.627,39.804z"/>
<polygon fill="#165489" points="601.075,1.184 296.338,1.184 323.965,39.7 324.064,39.771 324.041,39.804 324.064,39.838 
	323.965,39.909 296.338,78.426 601.074,78.426 628.777,39.804 "/>
</svg>
