<?xml version="1.0" encoding="utf-8"?>
<!-- Generator: Adobe Illustrator 22.1.0, SVG Export Plug-In . SVG Version: 6.00 Build 0)  -->
<svg version="1.1" id="Layer_1" xmlns="http://www.w3.org/2000/svg" xmlns:xlink="http://www.w3.org/1999/xlink" x="0px" y="0px"
	 viewBox="0 0 221.8 60" style="enable-background:new 0 0 221.8 60;" xml:space="preserve">
<style type="text/css">
	.st0{fill:#FFFFFF;}
	.st1{fill:#BABABA;}
</style>
<path class="st0" d="M212.8,36.4c0,6.6-4,8.6-10.7,8.6c-3.2,0-9.3-0.9-9.3-0.9l0.2-1.9c0,0,6,1,8.9,1c5.3,0,8.7-1.2,8.7-6.6
	c0-4-2-4.8-8.7-5.8c-6.6-1-9.5-2.1-9.5-7.3c0-6,5-7.5,9.6-7.5c4.3,0,9.6,0.8,9.6,0.8l-0.1,1.9c0,0-5.7-0.9-9.5-0.9
	c-3.6,0-7.5,1-7.5,5.6c0,3.5,1.5,4.6,8,5.6C210,30.1,212.8,31.1,212.8,36.4z M177.6,28.4l-0.6,5.3h-16.5c0.1,3.2,1.6,4.6,5.7,4.6
	c4.6,0,10.4-0.5,10.4-0.5l0.1,5.8c0,0-6.5,1.6-11.7,1.6c-8.5,0-12.1-4.2-12.1-14.3c0-10,4.2-15,12.4-15
	C173.6,15.8,177.6,20,177.6,28.4z M170.2,27.9c0-4-1.3-5.5-4.8-5.5c-3.6,0-4.8,1.8-4.9,5.5H170.2z M85.3,5.2h7.5v39.3h-7.5v-1.1
	c0,0-3.9,1.7-6.7,1.7c-8.5,0-10.9-5.1-10.9-14.9c0-10.2,4-14.4,11.6-14.4c2.1,0,6,0.7,6,0.7h0V5.2z M85.3,23.1c0,0-3.1-0.5-5.5-0.5
	c-2.8,0-4.6,2-4.6,7.6c0,5.7,1.1,7.9,4.6,8c2.2-0.1,5.5-0.8,5.5-0.8V23.1z M185.7,44.1c0,5.5-1.3,7.4-7.7,10.8l0.8,1.7
	c7.2-3.7,8.9-6.2,8.9-12.5V16.4h-2V44.1z M185.7,8.3h2V5.2h-2V8.3z M140,15.8c-2.6,0-6.9,1.9-6.9,1.9v-1.2h-7.5v28h7.5V23.8
	c0,0,3.5-1,5.4-1c3.3,0,3.9,2.8,3.9,7v14.6h7.5V29.8C149.9,20.8,147.9,15.8,140,15.8z M32.5,27.7L32.5,27.7l-1.9,7h7.8l1.9-7H32.5z
	 M19.8,11.8h41.9L59,21.6l-5.9,22.2H15.6l-6,8.8l-0.8-0.1l6.4-23.8v0.1l1.9-7.3L19.8,11.8z M56.5,21.6h-6.6l-1.7,6.1h-7.8h0l1.6-6.1
	h-7.8h0l-1.6,6.1h-7.8h0l1.6-6.1h-6.6L18,27.7h6.6l-1.9,7h-6.6l-1.8,6.6H21l1.8-6.6h0h7.8l-1.8,6.6h7.9l1.8-6.6h0h7.8l-1.8,6.6h6.7
	l1.8-6.6h-6.6h0l1.9-7h0h6.6L56.5,21.6L56.5,21.6z M32.6,18.2h21.3l0.9-3.3h0H33.5h0L32.6,18.2z M26.6,18.2c0.9,0,1.8-0.7,2-1.6
	c0.2-0.9-0.3-1.6-1.2-1.6c-0.9,0-1.8,0.7-2,1.6C25.2,17.5,25.7,18.2,26.6,18.2z M22.3,18.2c0.9,0,1.8-0.7,2-1.6
	c0.2-0.9-0.3-1.6-1.2-1.6c-0.9,0-1.8,0.7-2,1.6C21,17.5,21.5,18.2,22.3,18.2z M122.1,30.5c0,8.6-3.1,14.7-12.9,14.7
	c-9.7,0-12.9-6-12.9-14.7s3.1-14.6,12.9-14.6C118.9,15.8,122.1,21.8,122.1,30.5z M114.5,30.4c0-5.1-1.1-7.8-5.3-7.8
	c-4.2,0-5.3,2.7-5.3,7.8s1.1,7.9,5.3,7.9S114.5,35.6,114.5,30.4z"/>
<path class="st1" d="M212.8,35c0,6.6-4,8.6-10.7,8.6c-3.2,0-9.3-0.9-9.3-0.9l0.2-1.9c0,0,6,1,8.9,1c5.3,0,8.7-1.2,8.7-6.6
	c0-4-2-4.8-8.7-5.8c-6.6-1-9.5-2.1-9.5-7.3c0-6,5-7.5,9.6-7.5c4.3,0,9.6,0.8,9.6,0.8l-0.1,1.9c0,0-5.7-0.9-9.5-0.9
	c-3.6,0-7.5,1-7.5,5.6c0,3.5,1.5,4.6,8,5.6C210,28.6,212.8,29.7,212.8,35z M177.6,27l-0.6,5.3h-16.5c0.1,3.2,1.6,4.6,5.7,4.6
	c4.6,0,10.4-0.5,10.4-0.5l0.1,5.8c0,0-6.5,1.6-11.7,1.6c-8.5,0-12.1-4.2-12.1-14.3c0-10,4.2-15,12.4-15
	C173.6,14.4,177.6,18.6,177.6,27z M170.2,26.5c0-4-1.3-5.5-4.8-5.5c-3.6,0-4.8,1.8-4.9,5.5H170.2z M85.3,3.8h7.5v39.3h-7.5V42
	c0,0-3.9,1.7-6.7,1.7c-8.5,0-10.9-5.1-10.9-14.9c0-10.2,4-14.4,11.6-14.4c2.1,0,6,0.7,6,0.7h0V3.8z M85.3,21.7c0,0-3.1-0.5-5.5-0.5
	c-2.8,0-4.6,2-4.6,7.6c0,5.7,1.1,7.9,4.6,8c2.2-0.1,5.5-0.8,5.5-0.8V21.7z M185.7,42.7c0,5.5-1.3,7.4-7.7,10.8l0.8,1.7
	c7.2-3.7,8.9-6.2,8.9-12.5V15h-2V42.7z M185.7,6.9h2V3.8h-2V6.9z M140,14.4c-2.6,0-6.9,1.9-6.9,1.9v-1.2h-7.5v28h7.5V22.4
	c0,0,3.5-1,5.4-1c3.3,0,3.9,2.8,3.9,7V43h7.5V28.4C149.9,19.4,147.9,14.4,140,14.4z M32.5,26.3L32.5,26.3l-1.9,7h7.8l1.9-7H32.5z
	 M19.8,10.3h41.9L59,20.1l-5.9,22.2H15.6l-6,8.8l-0.8-0.1l6.4-23.8v0.1l1.9-7.3L19.8,10.3z M56.5,20.1h-6.6l-1.7,6.1h-7.8h0l1.6-6.1
	h-7.8h0l-1.6,6.1h-7.8h0l1.6-6.1h-6.6L18,26.3h6.6l-1.9,7h-6.6l-1.8,6.6H21l1.8-6.6h0h7.8l-1.8,6.6h7.9l1.8-6.6h0h7.8l-1.8,6.6h6.7
	l1.8-6.6h-6.6h0l1.9-7h0h6.6L56.5,20.1L56.5,20.1z M32.6,16.8h21.3l0.9-3.3h0H33.5h0L32.6,16.8z M26.6,16.8c0.9,0,1.8-0.7,2-1.6
	c0.2-0.9-0.3-1.6-1.2-1.6c-0.9,0-1.8,0.7-2,1.6C25.2,16.1,25.7,16.8,26.6,16.8z M22.3,16.8c0.9,0,1.8-0.7,2-1.6
	c0.2-0.9-0.3-1.6-1.2-1.6c-0.9,0-1.8,0.7-2,1.6C21,16.1,21.5,16.8,22.3,16.8z M122.1,29.1c0,8.6-3.1,14.7-12.9,14.7
	c-9.7,0-12.9-6-12.9-14.7s3.1-14.6,12.9-14.6C118.9,14.4,122.1,20.4,122.1,29.1z M114.5,29c0-5.1-1.1-7.8-5.3-7.8
	c-4.2,0-5.3,2.7-5.3,7.8s1.1,7.9,5.3,7.9S114.5,34.2,114.5,29z"/>
</svg>
